# xmcd CD database file
# Copyright (C) 1993-1998 Ti Kan
#
# Track frame offsets:
#	182
#	12092
#	25587
#	36487
#	50000
#	63000
#	75325
#	87525
#	101197
#	113127
#	127602
#	141535
#	153295
#	166900
#	179505
#	195982
#	207992
#	221660
#
# Disc length: 3119 seconds
#
# Revision: 1
# Processed by: cddbd v1.4b41PL1 Copyright (c) Steve Scherf et al.
# Submitted via: QuintessentialCD v1.1 (c) 1998 Paul Quinn
#
DISCID=ef0c2d12
DTITLE=Delmore Brothers - Brown's Ferry Blues
DYEAR=1900
DGENRE=
TTITLE0=Rainin' On The Mountain
TTITLE1=Blue Railroad Train
TTITLE2=The Nashville Blues
TTITLE3=Gonna Lay Down My Old Guitar
TTITLE4=Blow Yo' Whistle, Freight Train
TTITLE5=The Fugitive's Lament
TTITLE6=The Weary Lonesome Blues
TTITLE7=I've Got The Big River Blues
TTITLE8=Happy On THe Mississippi Shore
TTITLE9=Don't You See That Train
TTITLE10=The Frozen Girl
TTITLE11=See that Coon In A Hickory Tree
TTITLE12=The Lover's Warning
TTITLE13=Don't Let My Ramblin' Bother Your Mind
TTITLE14=Take Me Back To The Range
TTITLE15=Back To Birmingham
TTITLE16=Till The Roses Bloom Again
TTITLE17=Brown's Ferry Blues
EXTD=
EXTT0=
EXTT1=
EXTT2=
EXTT3=
EXTT4=
EXTT5=
EXTT6=
EXTT7=
EXTT8=
EXTT9=
EXTT10=
EXTT11=
EXTT12=
EXTT13=
EXTT14=
EXTT15=
EXTT16=
EXTT17=
PLAYORDER=
